<svg xmlns="http://www.w3.org/2000/svg" viewBox="0 0 22.46 18.45"><defs><style>.cls-1{fill:#ffd028;}.cls-2{fill:#005869;}</style></defs><g id="UI_Design" data-name="UI Design"><polygon class="cls-1" points="14.39 8.38 12.84 8.38 12.84 6.71 11.28 6.71 11.28 5.03 9.73 5.03 9.73 3.35 8.18 3.35 8.18 1.68 6.62 1.68 6.62 0 0 0 0 1.69 1.55 1.69 1.55 3.37 3.11 3.37 3.11 5.04 4.66 5.04 4.66 6.72 6.21 6.72 6.21 8.39 7.77 8.39 7.77 10.06 6.21 10.06 6.21 11.73 4.66 11.73 4.66 13.41 3.11 13.41 3.11 15.09 1.55 15.09 1.55 16.76 0 16.76 0 18.45 6.62 18.45 6.62 16.78 8.18 16.78 8.18 15.1 9.73 15.1 9.73 13.42 11.28 13.42 11.28 11.75 12.84 11.75 12.84 10.07 14.39 10.07 14.39 8.38"/><polygon class="cls-2" points="22.46 8.38 20.9 8.38 20.9 6.71 19.35 6.71 19.35 5.03 17.8 5.03 17.8 3.35 16.24 3.35 16.24 1.68 14.69 1.68 14.69 0 8.07 0 8.07 1.69 9.62 1.69 9.62 3.37 11.17 3.37 11.17 5.04 12.73 5.04 12.73 6.72 14.28 6.72 14.28 8.39 15.84 8.39 15.84 10.06 14.28 10.06 14.28 11.73 12.73 11.73 12.73 13.41 11.17 13.41 11.17 15.09 9.62 15.09 9.62 16.76 8.07 16.76 8.07 18.45 14.69 18.45 14.69 16.78 16.24 16.78 16.24 15.1 17.8 15.1 17.8 13.42 19.35 13.42 19.35 11.75 20.9 11.75 20.9 10.07 22.46 10.07 22.46 8.38"/></g></svg>