<?xml version="1.0" encoding="utf-8"?>
<!-- Generator: Adobe Illustrator 25.1.0, SVG Export Plug-In . SVG Version: 6.00 Build 0)  -->
<svg version="1.1" id="Layer_1" xmlns="http://www.w3.org/2000/svg" xmlns:xlink="http://www.w3.org/1999/xlink" x="0px" y="0px"
	 viewBox="0 0 29.3 26.1" style="enable-background:new 0 0 29.3 26.1;" xml:space="preserve">
<style type="text/css">
	.st0{fill:#FF4131;}
</style>
<polygon class="st0" points="19.9,0.2 26.4,0.2 26.4,3.5 29.7,3.5 29.7,13.3 26.4,13.3 26.4,16.5 23.2,16.5 23.2,19.8 19.9,19.8 
	19.9,23.1 16.6,23.1 16.6,26.3 13.4,26.3 13.4,23.1 10.1,23.1 10.1,19.8 6.8,19.8 6.8,16.5 3.6,16.5 3.6,13.3 0.3,13.3 0.3,3.5 
	3.6,3.5 3.6,0.2 10.1,0.2 10.1,3.5 13.4,3.5 13.4,6.8 16.6,6.8 16.6,3.5 19.9,3.5 "/>
</svg>
