<svg xmlns="http://www.w3.org/2000/svg" viewBox="0 0 42.37 42.37"><defs><style>.cls-1{fill:#fff;}.cls-2{fill:#34a2b7;}</style></defs><g id="UI_Design" data-name="UI Design"><circle class="cls-1" cx="21.18" cy="21.18" r="20"/><path class="cls-2" d="M29.28,20.56a8.13,8.13,0,0,0-7.42-7.42V10.37H20.51v2.77a8.12,8.12,0,0,0-7.42,7.42H10.32v1.35h2.77a8.12,8.12,0,0,0,7.42,7.42V32.1h1.35V29.33a8.13,8.13,0,0,0,7.42-7.42h2.77V20.56Zm-8.1,7.55a6.88,6.88,0,1,1,6.88-6.87A6.88,6.88,0,0,1,21.18,28.11Z"/><path class="cls-2" d="M21.18,16.16a5.08,5.08,0,1,0,5.08,5.08A5.07,5.07,0,0,0,21.18,16.16Z"/></g></svg>