<svg xmlns="http://www.w3.org/2000/svg" viewBox="0 0 104.59 23.19"><defs><style>.cls-1{fill:#005869;}.cls-2{fill:#34a2b7;}.cls-3{fill:#ffd028;}</style></defs><g id="UI_Design" data-name="UI Design"><path class="cls-1" d="M15.44,6.51l-1,7-2.21,2h-5l-.38,2.7h-5L3.71,4.49H13.79ZM9.9,8.65H8.19l-.37,2.63H9.54Z"/><path class="cls-1" d="M27.59,7.28,26.06,18.2H22.92l-.83-1.32L20.63,18.2H17.09L15.32,16l.92-6.61,2.51-2.15ZM21.91,14l.43-3.11H20.77L20.34,14Z"/><path class="cls-1" d="M36.66,12.46H33.41L32.6,18.2H27.24L28.77,7.28h5.15l-.17,1.21,1.44-1.08h2.18Z"/><path class="cls-1" d="M48.6,11.58l-1.55,1.14,1.22,1.16-.6,4.32H42.76l.51-3.6h-1l-.5,3.6h-5L38.78,4h5l-1,6.91h1l.5-3.58H49.2Z"/><path class="cls-1" d="M50.85,7.14,51.3,4h5.2l-.44,3.19ZM49.31,18.2,50.74,8h5.2L54.51,18.2Z"/><path class="cls-1" d="M62.61,11.64l-.32,2.28h2.18l-.6,4.28H58.7L56.81,16l.61-4.4H56.29l.59-4.2H58L58.35,5h5.19L63.2,7.44h2.17l-.59,4.2Z"/><polygon class="cls-1" points="93.64 10.64 91.9 10.64 91.9 8.76 90.16 8.76 90.16 6.88 88.41 6.88 88.41 5 86.67 5 86.67 3.12 84.93 3.12 84.93 1.24 77.51 1.24 77.51 3.14 79.25 3.14 79.25 5.02 80.99 5.02 80.99 6.89 82.73 6.89 82.73 8.78 84.47 8.78 84.47 10.65 86.22 10.65 86.22 12.52 84.47 12.52 84.47 14.4 82.73 14.4 82.73 16.28 80.99 16.28 80.99 18.16 79.25 18.16 79.25 20.04 77.51 20.04 77.51 21.93 84.93 21.93 84.93 20.05 86.67 20.05 86.67 18.17 88.41 18.17 88.41 16.29 90.16 16.29 90.16 14.41 91.9 14.41 91.9 12.53 93.64 12.53 93.64 10.64"/><polygon class="cls-2" points="102.79 10.64 101.05 10.64 101.05 8.76 99.31 8.76 99.31 6.88 97.57 6.88 97.57 5 95.83 5 95.83 3.12 94.08 3.12 94.08 1.24 86.66 1.24 86.66 3.14 88.4 3.14 88.4 5.02 90.14 5.02 90.14 6.89 91.89 6.89 91.89 8.78 93.63 8.78 93.63 10.65 95.37 10.65 95.37 12.52 93.63 12.52 93.63 14.4 91.89 14.4 91.89 16.28 90.14 16.28 90.14 18.16 88.4 18.16 88.4 20.04 86.66 20.04 86.66 21.93 94.08 21.93 94.08 20.05 95.83 20.05 95.83 18.17 97.57 18.17 97.57 16.29 99.31 16.29 99.31 14.41 101.05 14.41 101.05 12.53 102.79 12.53 102.79 10.64"/><polygon class="cls-3" points="84.47 10.65 82.73 10.65 82.73 8.78 80.99 8.78 80.99 6.89 79.25 6.89 79.25 5.02 77.51 5.02 77.51 3.14 75.76 3.14 75.76 1.26 68.34 1.26 68.34 3.15 70.08 3.15 70.08 5.03 71.83 5.03 71.83 6.91 73.57 6.91 73.57 8.79 75.31 8.79 75.31 10.67 77.05 10.67 77.05 12.53 75.31 12.53 75.31 14.41 73.57 14.41 73.57 16.29 71.83 16.29 71.83 18.17 70.08 18.17 70.08 20.05 68.34 20.05 68.34 21.94 75.76 21.94 75.76 20.06 77.51 20.06 77.51 18.18 79.25 18.18 79.25 16.3 80.99 16.3 80.99 14.43 82.73 14.43 82.73 12.55 84.47 12.55 84.47 10.65"/></g></svg>