<?xml version="1.0" encoding="utf-8"?>
<!-- Generator: Adobe Illustrator 25.1.0, SVG Export Plug-In . SVG Version: 6.00 Build 0)  -->
<svg version="1.1" id="Layer_1" xmlns="http://www.w3.org/2000/svg" xmlns:xlink="http://www.w3.org/1999/xlink" x="0px" y="0px"
	 viewBox="0 0 52.3 45.4" style="enable-background:new 0 0 52.3 45.4;" xml:space="preserve">
<style type="text/css">
	.st0{fill:#005869;}
	.st1{fill:#FFD028;}
	.st2{fill:#C0EFF5;}
</style>
<g id="UI_Design">
	<polygon class="st0" points="38.1,12.6 36,12.6 36,10.3 33.9,10.3 33.9,8 31.8,8 31.8,5.8 29.7,5.8 29.7,3.5 27.6,3.5 27.6,1.2 
		18.6,1.2 18.6,3.5 20.7,3.5 20.7,5.8 22.8,5.8 22.8,8 24.9,8 24.9,10.3 27,10.3 27,12.6 29.1,12.6 29.1,14.8 27,14.8 27,17.1 
		24.9,17.1 24.9,19.4 22.8,19.4 22.8,21.6 20.7,21.6 20.7,23.9 18.6,23.9 18.6,26.2 27.6,26.2 27.6,23.9 29.7,23.9 29.7,21.6 
		31.8,21.6 31.8,19.4 33.9,19.4 33.9,17.1 36,17.1 36,14.8 38.1,14.8 	"/>
	<polygon class="st1" points="49.1,12.6 47,12.6 47,10.3 44.9,10.3 44.9,8 42.8,8 42.8,5.8 40.7,5.8 40.7,3.5 38.6,3.5 38.6,1.2 
		29.7,1.2 29.7,3.5 31.8,3.5 31.8,5.8 33.9,5.8 33.9,8 36,8 36,10.3 38.1,10.3 38.1,12.6 40.2,12.6 40.2,14.8 38.1,14.8 38.1,17.1 
		36,17.1 36,19.4 33.9,19.4 33.9,21.6 31.8,21.6 31.8,23.9 29.7,23.9 29.7,26.2 38.6,26.2 38.6,23.9 40.7,23.9 40.7,21.6 42.8,21.6 
		42.8,19.4 44.9,19.4 44.9,17.1 47,17.1 47,14.8 49.1,14.8 	"/>
	<polygon class="st1" points="27,12.6 24.9,12.6 24.9,10.3 22.8,10.3 22.8,8 20.7,8 20.7,5.8 18.6,5.8 18.6,3.5 16.5,3.5 16.5,1.2 
		7.6,1.2 7.6,3.5 9.7,3.5 9.7,5.8 11.8,5.8 11.8,8.1 13.9,8.1 13.9,10.3 16,10.3 16,12.6 18.1,12.6 18.1,14.8 16,14.8 16,17.1 
		13.9,17.1 13.9,19.4 11.8,19.4 11.8,21.6 9.7,21.6 9.7,23.9 7.6,23.9 7.6,26.2 16.5,26.2 16.5,23.9 18.6,23.9 18.6,21.7 20.7,21.7 
		20.7,19.4 22.8,19.4 22.8,17.1 24.9,17.1 24.9,14.9 27,14.9 	"/>
	<path class="st2" d="M11.9,35.1l-0.8,5.4L9.4,42H5.5l-0.3,2.1H1.3l1.5-10.6h7.8L11.9,35.1z M7.6,36.8H6.3l-0.3,2h1.3L7.6,36.8z"/>
	<path class="st2" d="M21.3,35.7l-1.2,8.5h-2.4l-0.7-1l-1.1,1h-2.7l-1.4-1.7l0.7-5.1l1.9-1.7H21.3z M16.9,40.9l0.3-2.4H16l-0.3,2.4
		H16.9z"/>
	<path class="st2" d="M28.4,39.7h-2.5l-0.6,4.5H21l1.2-8.5h4l-0.1,0.9l1.1-0.8h1.7L28.4,39.7z"/>
	<path class="st2" d="M37.6,39l-1.2,0.9l1,0.9l-0.5,3.3H33l0.4-2.8h-0.8l-0.4,2.8h-3.8l1.5-11h3.8L33,38.4h0.8l0.4-2.8H38L37.6,39z"
		/>
	<path class="st2" d="M39.3,35.6l0.4-2.5h4l-0.4,2.5H39.3z M38.1,44.2l1.1-7.9h4l-1.1,7.9H38.1z"/>
	<path class="st2" d="M48.4,39.1l-0.3,1.8h1.7l-0.5,3.3h-4L44,42.5l0.5-3.4h-0.9l0.5-3.3h0.9l0.3-1.9h4l-0.3,1.9h1.7l-0.5,3.3
		C50.1,39.1,48.4,39.1,48.4,39.1z"/>
</g>
</svg>
