<svg xmlns="http://www.w3.org/2000/svg" viewBox="0 0 52.3 45.36"><defs><style>.cls-1{fill:#005869;}.cls-2{fill:#ffd028;}</style></defs><g id="UI_Design" data-name="UI Design"><polygon class="cls-1" points="38.09 12.56 35.99 12.56 35.99 10.29 33.89 10.29 33.89 8.02 31.79 8.02 31.79 5.75 29.69 5.75 29.69 3.49 27.59 3.49 27.59 1.22 18.63 1.22 18.63 3.5 20.73 3.5 20.73 5.77 22.84 5.77 22.84 8.04 24.94 8.04 24.94 10.31 27.04 10.31 27.04 12.57 29.14 12.57 29.14 14.82 27.04 14.82 27.04 17.09 24.94 17.09 24.94 19.36 22.84 19.36 22.84 21.63 20.73 21.63 20.73 23.89 18.63 23.89 18.63 26.18 27.59 26.18 27.59 23.91 29.69 23.91 29.69 21.64 31.79 21.64 31.79 19.37 33.89 19.37 33.89 17.11 35.99 17.11 35.99 14.84 38.09 14.84 38.09 12.56"/><polygon class="cls-2" points="49.14 12.56 47.03 12.56 47.03 10.29 44.93 10.29 44.93 8.02 42.83 8.02 42.83 5.75 40.73 5.75 40.73 3.49 38.63 3.49 38.63 1.22 29.67 1.22 29.67 3.5 31.77 3.5 31.77 5.77 33.88 5.77 33.88 8.04 35.98 8.04 35.98 10.31 38.08 10.31 38.08 12.57 40.18 12.57 40.18 14.82 38.08 14.82 38.08 17.09 35.98 17.09 35.98 19.36 33.88 19.36 33.88 21.63 31.77 21.63 31.77 23.89 29.67 23.89 29.67 26.18 38.63 26.18 38.63 23.91 40.73 23.91 40.73 21.64 42.83 21.64 42.83 19.37 44.93 19.37 44.93 17.11 47.03 17.11 47.03 14.84 49.14 14.84 49.14 12.56"/><polygon class="cls-2" points="27.04 12.57 24.94 12.57 24.94 10.31 22.84 10.31 22.84 8.04 20.73 8.04 20.73 5.77 18.63 5.77 18.63 3.5 16.53 3.5 16.53 1.24 7.58 1.24 7.58 3.52 9.68 3.52 9.68 5.79 11.78 5.79 11.78 8.05 13.88 8.05 13.88 10.32 15.98 10.32 15.98 12.59 18.08 12.59 18.08 14.84 15.98 14.84 15.98 17.11 13.88 17.11 13.88 19.37 11.78 19.37 11.78 21.64 9.68 21.64 9.68 23.91 7.58 23.91 7.58 26.19 16.53 26.19 16.53 23.92 18.63 23.92 18.63 21.66 20.73 21.66 20.73 19.39 22.84 19.39 22.84 17.12 24.94 17.12 24.94 14.86 27.04 14.86 27.04 12.57"/><path class="cls-1" d="M11.37,35.09v5.4L9.87,42H6v2.09H2.07V33.53h7.8ZM7.31,36.75H6v2H7.31Z"/><path class="cls-1" d="M20.86,35.68v8.47H18.43l-.79-1-1,1H13.92l-1.61-1.68V37.36L14,35.68Zm-3.68,5.19V38.46H16v2.41Z"/><path class="cls-1" d="M28.45,39.7H25.93v4.45H21.77V35.68h4v.94l1-.83h1.69Z"/><path class="cls-1" d="M37.59,39l-1.07.88,1.07.9v3.35h-3.8V41.36H33v2.79H29.17v-11H33v5.35h.76V35.68h3.8Z"/><path class="cls-1" d="M38.86,35.58V33.11h4v2.47Zm0,8.57V36.22h4v7.93Z"/><path class="cls-1" d="M48.45,39.07v1.76h1.69v3.32h-4l-1.69-1.68v-3.4h-.88V35.81h.88v-1.9h4v1.9h1.69v3.26Z"/></g></svg>