<svg xmlns="http://www.w3.org/2000/svg" xmlns:xlink="http://www.w3.org/1999/xlink" viewBox="0 0 497.48 351.58"><defs><style>.cls-1{fill:none;}.cls-2{clip-path:url(#clip-path);}.cls-3{fill:#7fd6df;}.cls-4{fill:#eff0f0;}.cls-5{fill:#c0eff5;}.cls-6{fill:#fff;}.cls-7,.cls-9{fill:#005869;}.cls-7{stroke:#005869;stroke-miterlimit:10;}.cls-8{fill:#ffd228;}.cls-10{fill:#34a2b7;}.cls-11{fill:#ff5541;}.cls-12{fill:#ffd028;}</style><clipPath id="clip-path"><rect class="cls-1" x="0.5" width="496.98" height="351.58"/></clipPath></defs><g id="UI_Design" data-name="UI Design"><g class="cls-2"><rect class="cls-3" x="0.5" width="496.98" height="351.58"/><polygon class="cls-4" points="318.61 0 295.42 0 497.48 128.13 497.48 124 318.61 0"/><polygon class="cls-5" points="0.5 98.5 497.48 154.93 497.48 153.12 0.5 88.33 0.5 98.5"/><polygon class="cls-4" points="497.48 140 173.62 0 150.74 0 497.48 141.73 497.48 140"/><polygon class="cls-4" points="497.48 145.33 0.5 7.07 0.5 17.64 497.48 146.08 497.48 145.33"/><polygon class="cls-4" points="0.5 49.62 0.5 55.82 497.48 151.68 497.48 149.07 0.5 49.62"/><polygon class="cls-4" points="497.48 142.28 57.87 0 41.24 0 497.48 144.35 497.48 142.28"/><polygon class="cls-5" points="364.73 188.91 0.5 263.53 0.5 351.58 497.48 351.58 497.48 206.12 364.73 188.91"/><polygon class="cls-3" points="364.73 182.73 364.73 188.91 0.5 263.53 0.5 238.59 364.73 182.73"/><path class="cls-6" d="M284.3,211l118.34,25.91-49.11,23L231.17,221.83,284.3,211m0-5.43-74.12,15.14L354,266.8l64.64-31.86L284.34,205.55Z"/><path class="cls-6" d="M353.66,194.72l101.19,16.14-29.43,13.92L320,203.57Zm-59.5,8.82,132.56,27.4,42.89-21.89L354.7,191Z"/><polygon class="cls-7" points="0.5 238.59 346.77 185.48 346.77 137.82 0.5 98.5 0.5 238.59"/><polygon class="cls-8" points="135.83 163.9 135.83 158.93 141.22 159.06 141.22 154.17 146.6 154.38 146.6 149.58 151.99 149.87 151.99 145.16 157.37 145.53 157.37 140.65 140.84 139.21 140.84 144.1 135.45 143.72 135.45 148.7 130.06 148.4 130.06 153.46 124.68 153.24 124.68 158.39 119.3 158.26 119.3 162.88 113.22 162.82 113.22 169.66 119.3 169.6 119.3 174.23 124.68 174.1 124.68 179.25 130.06 179.03 130.06 184.09 135.45 183.8 135.45 188.78 140.84 188.4 140.84 193.29 157.37 191.87 157.37 186.98 151.99 187.36 151.99 182.64 146.6 182.93 146.6 178.13 141.22 178.33 141.22 173.45 135.83 173.57 135.83 168.6 129.76 168.64 129.76 163.85 135.83 163.9"/><polygon class="cls-8" points="258.6 160.25 258.6 156.5 262.77 156.6 262.77 152.91 266.94 153.07 266.94 149.44 271.12 149.66 271.12 146.1 275.29 146.39 275.29 142.7 262.47 141.61 262.47 145.31 258.3 145.02 258.3 148.78 254.13 148.55 254.13 152.37 249.96 152.21 249.96 156.09 245.78 155.99 245.78 159.49 241.08 159.44 241.08 164.6 245.78 164.56 245.78 168.05 249.96 167.96 249.96 171.84 254.13 171.68 254.13 175.5 258.3 175.28 258.3 179.04 262.47 178.75 262.47 182.45 275.29 181.38 275.29 177.69 271.12 177.97 271.12 174.41 266.94 174.63 266.94 171 262.77 171.15 262.77 167.47 258.6 167.56 258.6 163.8 253.89 163.84 253.89 160.22 258.6 160.25"/><polygon class="cls-9" points="285.92 55.49 285.92 275.34 267.02 266.45 267.02 66.47 285.92 55.49"/><polygon class="cls-10" points="285.92 55.49 323.43 70.46 323.43 257.44 285.92 275.34 285.92 55.49"/><polygon class="cls-11" points="285.92 193.88 267.02 190.92 267.02 266.45 285.92 275.34 285.92 193.88"/><polygon class="cls-8" points="285.92 193.88 285.92 275.34 323.43 257.44 323.43 188.23 285.92 193.88"/><polygon class="cls-9" points="291.62 193.02 285.92 204.16 285.92 223.58 302.39 191.4 291.62 193.02"/><polygon class="cls-9" points="323.43 188.23 313.17 189.78 285.92 243 285.92 262.43 323.43 189.16 323.43 188.23"/><polygon class="cls-9" points="323.43 247.43 316.65 260.68 323.43 257.44 323.43 247.43"/><polygon class="cls-9" points="323.43 208.58 290.34 273.23 303.49 266.95 323.43 228.01 323.43 208.58"/><polygon class="cls-10" points="497.48 117.29 364.73 139.86 364.73 188.91 497.48 206.12 497.48 117.29"/><polygon class="cls-9" points="455.62 159.85 452.2 159.94 452.2 156.35 448.79 156.53 448.79 153.04 445.37 153.33 445.37 149.93 441.96 150.31 441.96 147.02 438.54 147.49 438.54 144.29 423.99 146.74 423.99 149.54 427.4 149.07 427.4 151.95 430.82 151.57 430.82 154.55 434.23 154.27 434.23 157.35 437.65 157.16 437.65 160.34 441.06 160.25 441.06 163.5 437.65 163.49 437.65 166.66 434.23 166.56 434.23 169.63 430.82 169.43 430.82 172.41 427.4 172.11 427.4 174.99 423.99 174.6 423.99 177.4 438.54 179.51 438.54 176.31 441.96 176.71 441.96 173.41 445.37 173.71 445.37 170.32 448.79 170.52 448.79 167.03 452.2 167.14 452.2 163.55 455.62 163.56 455.62 159.85"/><polygon class="cls-9" points="432.44 160.21 429.63 160.29 429.63 157.34 426.82 157.49 426.82 154.62 424.01 154.85 424.01 152.06 421.2 152.37 421.2 149.66 418.4 150.06 418.4 147.42 406.43 149.43 406.43 151.74 409.24 151.35 409.24 153.72 412.05 153.41 412.05 155.86 414.85 155.63 414.85 158.16 417.66 158 417.66 160.62 420.47 160.54 420.47 163.21 417.66 163.21 417.66 165.82 414.85 165.73 414.85 168.26 412.05 168.09 412.05 170.54 409.24 170.3 409.24 172.67 406.43 172.34 406.43 174.65 418.4 176.38 418.4 173.75 421.2 174.08 421.2 171.37 424.01 171.61 424.01 168.82 426.82 168.99 426.82 166.12 429.63 166.21 429.63 163.26 432.44 163.26 432.44 160.21"/><path class="cls-6" d="M289.32,287.68l-95.58,45L87.22,254.83l95.21-21.41ZM184.71,225.94,64.63,250.39l127.61,96.09,119.43-58.85-127-61.69Z"/><polygon class="cls-6" points="158.9 351.32 158.29 351.58 181.88 351.58 55.03 252.44 0.5 263.43 0.5 274.27 52.34 263.82 158.9 351.32"/><polygon class="cls-12" points="346.77 137.48 346.77 192.59 364.73 188.91 364.73 139.52 346.77 137.48"/></g></g></svg>