<?xml version="1.0" encoding="utf-8"?>
<!-- Generator: Adobe Illustrator 25.4.1, SVG Export Plug-In . SVG Version: 6.00 Build 0)  -->
<svg version="1.1" id="Layer_1" xmlns="http://www.w3.org/2000/svg" xmlns:xlink="http://www.w3.org/1999/xlink" x="0px" y="0px"
	 viewBox="0 0 497.5 351.6" style="enable-background:new 0 0 497.5 351.6;" xml:space="preserve">
<style type="text/css">
	.st0{clip-path:url(#SVGID_00000039116595705761580740000014209071811892487347_);}
	.st1{fill:#7FD6DF;}
	.st2{fill:#EFF0F0;}
	.st3{fill:#C0EFF5;}
	.st4{fill:#FFFFFF;}
	.st5{fill:#005869;stroke:#005869;stroke-miterlimit:10;}
	.st6{fill:#FFD228;}
	.st7{fill:#005869;}
	.st8{fill:#34A2B7;}
	.st9{fill:#FF5541;}
	.st10{fill:#FFD028;}
</style>
<g id="UI_Design">
	<g>
		<defs>
			<rect id="SVGID_1_" y="0" width="497.5" height="351.6"/>
		</defs>
		<clipPath id="SVGID_00000088839604240976763680000004802740820955988156_">
			<use xlink:href="#SVGID_1_"  style="overflow:visible;"/>
		</clipPath>
		<g style="clip-path:url(#SVGID_00000088839604240976763680000004802740820955988156_);">
			<rect y="0" class="st1" width="497.5" height="351.6"/>
			<polygon class="st2" points="318.4,0 295.2,0 497.5,128.1 497.5,124 			"/>
			<polygon class="st3" points="0,98.5 497.5,154.9 497.5,153.1 0,88.3 			"/>
			<polygon class="st2" points="497.5,140 173.3,0 150.4,0 497.5,141.7 			"/>
			<polygon class="st2" points="497.5,145.3 0,7.1 0,17.6 497.5,146.1 			"/>
			<polygon class="st2" points="0,49.6 0,55.8 497.5,151.7 497.5,149.1 			"/>
			<polygon class="st2" points="497.5,142.3 57.4,0 40.8,0 497.5,144.4 			"/>
			<polygon class="st3" points="364.6,188.9 0,263.5 0,351.6 497.5,351.6 497.5,206.1 			"/>
			<polygon class="st1" points="364.6,182.7 364.6,188.9 0,263.5 0,238.6 			"/>
			<path class="st4" d="M284.1,211l118.5,25.9l-49.2,23l-122.5-38.1L284.1,211 M284.1,205.6l-74.2,15.1l144,46.1l64.7-31.9
				L284.1,205.6L284.1,205.6z"/>
			<path class="st4" d="M353.5,194.7l101.3,16.1l-29.5,13.9l-105.5-21.2L353.5,194.7z M294,203.5l132.7,27.4l42.9-21.9l-115-18.1
				L294,203.5z"/>
			<polygon class="st5" points="0,238.6 346.6,185.5 346.6,137.8 0,98.5 			"/>
			<polygon class="st6" points="182.8,162.7 182.8,157.7 188.2,157.8 188.2,153 193.6,153.2 193.6,148.4 199,148.7 199,143.9 
				204.4,144.3 204.4,139.4 187.8,138 187.8,142.9 182.5,142.5 182.5,147.5 177.1,147.2 177.1,152.2 171.7,152 171.7,157.2 
				166.3,157 166.3,161.7 160.2,161.6 160.2,168.4 166.3,168.4 166.3,173 171.7,172.9 171.7,178 177.1,177.8 177.1,182.9 
				182.5,182.6 182.5,187.6 187.8,187.2 187.8,192.1 204.4,190.7 204.4,185.8 199,186.1 199,181.4 193.6,181.7 193.6,176.9 
				188.2,177.1 188.2,172.2 182.8,172.4 182.8,167.4 176.8,167.4 176.8,162.6 			"/>
			<polygon class="st6" points="81.6,162.1 81.6,155.9 88.3,156.1 88.3,150 95.1,150.2 95.1,144.2 101.8,144.6 101.8,138.7 
				108.5,139.2 108.5,133.1 87.9,131.3 87.9,137.4 81.1,136.9 81.1,143.1 74.4,142.8 74.4,149.1 67.7,148.8 67.7,155.2 60.9,155.1 
				60.9,160.8 53.3,160.8 53.3,169.3 60.9,169.2 60.9,175 67.7,174.8 67.7,181.3 74.4,181 74.4,187.3 81.1,186.9 81.1,193.2 
				87.9,192.7 87.9,198.8 108.5,197 108.5,190.9 101.8,191.4 101.8,185.5 95.1,185.9 95.1,179.9 88.3,180.1 88.3,174 81.6,174.2 
				81.6,168 74,168 74,162 			"/>
			<polygon class="st6" points="258.4,160.2 258.4,156.5 262.5,156.6 262.5,152.9 266.7,153.1 266.7,149.4 270.9,149.7 270.9,146.1 
				275.1,146.4 275.1,142.7 262.2,141.6 262.2,145.3 258.1,145 258.1,148.8 253.9,148.6 253.9,152.4 249.7,152.2 249.7,156.1 
				245.5,156 245.5,159.5 240.8,159.4 240.8,164.6 245.5,164.6 245.5,168.1 249.7,168 249.7,171.8 253.9,171.7 253.9,175.5 
				258.1,175.3 258.1,179 262.2,178.8 262.2,182.4 275.1,181.4 275.1,177.7 270.9,178 270.9,174.4 266.7,174.6 266.7,171 
				262.5,171.1 262.5,167.5 258.4,167.6 258.4,163.8 253.6,163.8 253.6,160.2 			"/>
			<polygon class="st7" points="285.7,55.5 285.7,275.3 266.8,266.5 266.8,66.5 			"/>
			<polygon class="st8" points="285.7,55.5 323.3,70.5 323.3,257.4 285.7,275.3 			"/>
			<polygon class="st9" points="285.7,193.9 266.8,190.9 266.8,266.5 285.7,275.3 			"/>
			<polygon class="st6" points="285.7,193.9 285.7,275.3 323.3,257.4 323.3,188.2 			"/>
			<polygon class="st7" points="291.4,193 285.7,204.2 285.7,223.6 302.2,191.4 			"/>
			<polygon class="st7" points="323.3,188.2 313,189.8 285.7,243 285.7,262.4 323.3,189.2 			"/>
			<polygon class="st7" points="323.3,247.4 316.5,260.7 323.3,257.4 			"/>
			<polygon class="st7" points="323.3,208.6 290.1,273.2 303.3,267 323.3,228 			"/>
			<polygon class="st8" points="497.5,117.3 364.6,139.9 364.6,188.9 497.5,206.1 			"/>
			<polygon class="st7" points="455.6,159.9 452.2,159.9 452.2,156.4 448.7,156.5 448.7,153 445.3,153.3 445.3,149.9 441.9,150.3 
				441.9,147 438.5,147.5 438.5,144.3 423.9,146.7 423.9,149.5 427.3,149.1 427.3,151.9 430.8,151.6 430.8,154.6 434.2,154.3 
				434.2,157.4 437.6,157.2 437.6,160.3 441,160.2 441,163.5 437.6,163.5 437.6,166.7 434.2,166.6 434.2,169.6 430.8,169.4 
				430.8,172.4 427.3,172.1 427.3,175 423.9,174.6 423.9,177.4 438.5,179.5 438.5,176.3 441.9,176.7 441.9,173.4 445.3,173.7 
				445.3,170.3 448.7,170.5 448.7,167 452.2,167.1 452.2,163.6 455.6,163.6 			"/>
			<polygon class="st7" points="432.4,160.2 429.6,160.3 429.6,157.3 426.7,157.5 426.7,154.6 423.9,154.9 423.9,152.1 421.1,152.4 
				421.1,149.7 418.3,150.1 418.3,147.4 406.3,149.4 406.3,151.7 409.2,151.4 409.2,153.7 412,153.4 412,155.9 414.8,155.6 
				414.8,158.2 417.6,158 417.6,160.6 420.4,160.5 420.4,163.2 417.6,163.2 417.6,165.8 414.8,165.7 414.8,168.3 412,168.1 
				412,170.5 409.2,170.3 409.2,172.7 406.3,172.3 406.3,174.6 418.3,176.4 418.3,173.8 421.1,174.1 421.1,171.4 423.9,171.6 
				423.9,168.8 426.7,169 426.7,166.1 429.6,166.2 429.6,163.3 432.4,163.3 			"/>
			<path class="st4" d="M289.1,287.7l-95.7,45L86.8,254.8l95.3-21.4L289.1,287.7z M184.4,225.9L64.2,250.4l127.7,96.1l119.6-58.9
				L184.4,225.9L184.4,225.9z"/>
			<polygon class="st4" points="158.6,351.3 157.9,351.6 181.6,351.6 54.6,252.4 0,263.4 0,274.3 51.9,263.8 			"/>
			<polygon class="st10" points="346.6,137.5 346.6,192.6 364.6,188.9 364.6,139.5 			"/>
		</g>
	</g>
</g>
</svg>
