<svg xmlns="http://www.w3.org/2000/svg" viewBox="0 0 23 23"><defs><style>.cls-1{fill:#34a2b7;}</style></defs><g id="UI_Design" data-name="UI Design"><path class="cls-1" d="M23,13.5v-4H20.56a9.16,9.16,0,0,0-1.23-3l1.72-1.72L18.2,1.94,16.48,3.66a9.14,9.14,0,0,0-3-1.24V0h-4V2.42a9.23,9.23,0,0,0-3,1.24L4.78,2,1.94,4.8l1.7,1.71a9.17,9.17,0,0,0-1.23,3H0v4H2.41a9.25,9.25,0,0,0,1.25,3L2,18.22,4.8,21.06l1.71-1.71a9.28,9.28,0,0,0,3,1.24V23h4V20.57a9.18,9.18,0,0,0,3-1.24l1.72,1.72,2.84-2.85-1.72-1.72a9.12,9.12,0,0,0,1.23-3ZM11.49,14.62a3.12,3.12,0,1,1,3.12-3.12A3.12,3.12,0,0,1,11.49,14.62Z"/></g></svg>