<?xml version="1.0" encoding="utf-8"?>
<!-- Generator: Adobe Illustrator 25.1.0, SVG Export Plug-In . SVG Version: 6.00 Build 0)  -->
<svg version="1.1" id="Layer_1" xmlns="http://www.w3.org/2000/svg" xmlns:xlink="http://www.w3.org/1999/xlink" x="0px" y="0px"
	 viewBox="0 0 42.4 42.4" style="enable-background:new 0 0 42.4 42.4;" xml:space="preserve">
<style type="text/css">
	.st0{fill:#FFFFFF;}
	.st1{fill:#26A1B7;}
</style>
<g id="UI_Design_1_">
	<circle class="st0" cx="21.2" cy="21.2" r="20"/>
	<g>
		<polygon class="st1" points="23.9,20.5 22.6,20.5 22.6,19 21.2,19 21.2,17.5 19.9,17.5 19.9,16.1 18.5,16.1 18.5,14.6 17.2,14.6 
			17.2,13.2 11.4,13.2 11.4,14.6 12.8,14.6 12.8,16.1 14.1,16.1 14.1,17.6 15.5,17.6 15.5,19 16.8,19 16.8,20.5 18.2,20.5 
			18.2,21.9 16.8,21.9 16.8,23.4 15.5,23.4 15.5,24.8 14.1,24.8 14.1,26.3 12.8,26.3 12.8,27.7 11.4,27.7 11.4,29.2 17.2,29.2 
			17.2,27.7 18.5,27.7 18.5,26.3 19.9,26.3 19.9,24.8 21.2,24.8 21.2,23.4 22.6,23.4 22.6,21.9 23.9,21.9 		"/>
		<polygon class="st1" points="31.9,20.5 30.6,20.5 30.6,19 29.2,19 29.2,17.5 27.9,17.5 27.9,16.1 26.5,16.1 26.5,14.6 25.2,14.6 
			25.2,13.2 19.5,13.2 19.5,14.6 20.8,14.6 20.8,16.1 22.2,16.1 22.2,17.6 23.5,17.6 23.5,19 24.8,19 24.8,20.5 26.2,20.5 
			26.2,21.9 24.8,21.9 24.8,23.4 23.5,23.4 23.5,24.8 22.2,24.8 22.2,26.3 20.8,26.3 20.8,27.7 19.5,27.7 19.5,29.2 25.2,29.2 
			25.2,27.7 26.5,27.7 26.5,26.3 27.9,26.3 27.9,24.8 29.2,24.8 29.2,23.4 30.6,23.4 30.6,21.9 31.9,21.9 		"/>
	</g>
</g>
</svg>
