<?xml version="1.0" encoding="utf-8"?>
<!-- Generator: Adobe Illustrator 25.1.0, SVG Export Plug-In . SVG Version: 6.00 Build 0)  -->
<svg version="1.1" id="Layer_1" xmlns="http://www.w3.org/2000/svg" xmlns:xlink="http://www.w3.org/1999/xlink" x="0px" y="0px"
	 viewBox="0 0 203.3 203.3" style="enable-background:new 0 0 203.3 203.3;" xml:space="preserve">
<style type="text/css">
	.st0{fill:#FFD228;}
	.st1{fill:#1E2D55;}
	.st2{fill:#DCF5FF;}
</style>
<circle class="st0" cx="101.6" cy="101.6" r="101.1"/>
<path class="st1" d="M161.8,121.5H34.6l10.3-76.9c0.6-3.5,3.2-6,6.3-6h86.6c2.1,0,4,1.6,4.6,3.9L161.8,121.5z"/>
<path class="st1" d="M32.7,120.6h149.8c1.9,0,3.3,1.8,3.3,3.9v23.7H17.5v-10.6C17.5,128.3,24.7,120.6,32.7,120.6z"/>
<circle class="st1" cx="155.4" cy="149.9" r="14.6"/>
<ellipse transform="matrix(3.327795e-02 -0.9994 0.9994 3.327795e-02 -100.4357 194.3429)" class="st1" cx="50.2" cy="149.1" rx="14.6" ry="14.6"/>
<path class="st2" d="M111,46.4l14,74.3h31.1l-16.9-71.6c-0.4-1.6-1.8-2.7-3.4-2.7H111z"/>
</svg>
