<svg xmlns="http://www.w3.org/2000/svg" viewBox="0 0 65.27 65.27"><defs><style>.cls-1{fill:#ff5541;}.cls-2{fill:#005869;}.cls-3{fill:#ffd028;}</style></defs><g id="UI_Design" data-name="UI Design"><circle class="cls-1" cx="32.63" cy="32.63" r="32.63"/><polygon class="cls-2" points="48 31.09 45.17 31.09 45.17 28.04 42.34 28.04 42.34 24.98 39.52 24.98 39.52 21.93 36.69 21.93 36.69 18.88 33.86 18.88 33.86 15.83 21.81 15.83 21.81 18.91 24.64 18.91 24.64 21.96 27.46 21.96 27.46 25.01 30.29 25.01 30.29 28.06 33.12 28.06 33.12 31.11 35.95 31.11 35.95 34.14 33.12 34.14 33.12 37.19 30.29 37.19 30.29 40.24 27.46 40.24 27.46 43.29 24.64 43.29 24.64 46.34 21.81 46.34 21.81 49.42 33.86 49.42 33.86 46.37 36.69 46.37 36.69 43.31 39.52 43.31 39.52 40.26 42.34 40.26 42.34 37.21 45.17 37.21 45.17 34.16 48 34.16 48 31.09"/><polygon class="cls-3" points="62.86 31.09 60.03 31.09 60.03 28.04 57.2 28.04 57.2 24.98 54.38 24.98 54.38 21.93 51.55 21.93 51.55 18.88 48.72 18.88 48.72 15.83 36.67 15.83 36.67 18.91 39.5 18.91 39.5 21.96 42.33 21.96 42.33 25.01 45.15 25.01 45.15 28.06 47.98 28.06 47.98 31.11 50.81 31.11 50.81 34.14 47.98 34.14 47.98 37.19 45.15 37.19 45.15 40.24 42.33 40.24 42.33 43.29 39.5 43.29 39.5 46.34 36.67 46.34 36.67 49.42 48.72 49.42 48.72 46.37 51.55 46.37 51.55 43.31 54.38 43.31 54.38 40.26 57.2 40.26 57.2 37.21 60.03 37.21 60.03 34.16 62.86 34.16 62.86 31.09"/><polygon class="cls-3" points="33.12 31.11 30.29 31.11 30.29 28.06 27.46 28.06 27.46 25.01 24.64 25.01 24.64 21.96 21.81 21.96 21.81 18.91 18.98 18.91 18.98 15.85 6.93 15.85 6.93 18.93 9.76 18.93 9.76 21.98 12.59 21.98 12.59 25.03 15.41 25.03 15.41 28.08 18.24 28.08 18.24 31.13 21.07 31.13 21.07 34.16 18.24 34.16 18.24 37.21 15.41 37.21 15.41 40.26 12.59 40.26 12.59 43.31 9.76 43.31 9.76 46.37 6.93 46.37 6.93 49.44 18.98 49.44 18.98 46.39 21.81 46.39 21.81 43.34 24.64 43.34 24.64 40.28 27.46 40.28 27.46 37.23 30.29 37.23 30.29 34.18 33.12 34.18 33.12 31.11"/></g></svg>