<svg xmlns="http://www.w3.org/2000/svg" viewBox="0 0 259.39 143.44"><defs><style>.cls-1{fill:#005869;}.cls-2{fill:#34a2b7;}.cls-3{fill:#7fd6df;}.cls-4{fill:#fff;}.cls-5{fill:#daf3ff;}</style></defs><g id="UI_Design" data-name="UI Design"><circle class="cls-1" cx="220.51" cy="123.97" r="15.91"/><circle class="cls-1" cx="89.18" cy="123.97" r="15.91"/><path class="cls-2" d="M215.36,96.61H38.63L52.31,9.54a8.49,8.49,0,0,1,8.33-6.86H183.56a6.46,6.46,0,0,1,6.16,4.52Z"/><path class="cls-2" d="M25.93,96.61h225.5c2.77,0,5,2,5,4.4v26.56H3V115.75C3,105.18,13.93,96.61,25.93,96.61Z"/><path class="cls-3" d="M183.56,2.68h-46.2l25.1,93.93h52.9L189.72,7.2A6.46,6.46,0,0,0,183.56,2.68Z"/><path class="cls-3" d="M210.16,96.61h42.08a4.19,4.19,0,0,1,4.19,4.19v26.78a0,0,0,0,1,0,0H210.16a0,0,0,0,1,0,0v-31A0,0,0,0,1,210.16,96.61Z"/><circle class="cls-4" cx="222.28" cy="111.19" r="6.11"/><circle class="cls-4" cx="246.07" cy="111.19" r="6.11"/><path class="cls-4" d="M65.83,15.75,53.56,96.61H90.05V12.76H69.42A3.65,3.65,0,0,0,65.83,15.75Z"/><path class="cls-4" d="M140.28,12.73l22.24,83.88h43.59l-24-81.21a3.9,3.9,0,0,0-3.7-2.67Z"/><polygon class="cls-4" points="102.48 12.73 102.48 96.84 151.67 96.84 129.92 12.73 102.48 12.73"/><circle class="cls-1" cx="171.18" cy="123.97" r="15.91"/><circle class="cls-5" cx="171.18" cy="123.97" r="7.26"/><path class="cls-4" d="M173.93,110.6a12.62,12.62,0,0,1,10.61,11.07.48.48,0,0,1-.45.52.49.49,0,0,1-.49-.3,19.36,19.36,0,0,0-3.93-6.17,20,20,0,0,0-6-4.19.5.5,0,0,1-.24-.65A.51.51,0,0,1,173.93,110.6Z"/><circle class="cls-1" cx="39.99" cy="123.97" r="15.91"/><circle class="cls-5" cx="39.99" cy="123.97" r="7.26"/><path class="cls-4" d="M42.74,110.6a12.18,12.18,0,0,1,7.18,3.74,12.32,12.32,0,0,1,3.43,7.33.48.48,0,0,1-.45.52.49.49,0,0,1-.49-.3,19.36,19.36,0,0,0-3.93-6.17,20,20,0,0,0-6-4.19.49.49,0,0,1-.24-.65A.51.51,0,0,1,42.74,110.6Z"/></g></svg>