<?xml version="1.0" encoding="utf-8"?>
<!-- Generator: Adobe Illustrator 25.4.1, SVG Export Plug-In . SVG Version: 6.00 Build 0)  -->
<svg version="1.1" id="Layer_1" xmlns="http://www.w3.org/2000/svg" xmlns:xlink="http://www.w3.org/1999/xlink" x="0px" y="0px"
	 viewBox="0 0 60.1 101.5" style="enable-background:new 0 0 60.1 101.5;" xml:space="preserve">
<style type="text/css">
	.st0{fill:#FFFFFF;}
	.st1{fill:#828291;}
</style>
<g id="UI_Design">
	<rect x="9.5" y="9.5" class="st0" width="41.2" height="41.2"/>
	<path class="st1" d="M54.7,10.9V5.5h-5.5V0H10.9v5.5H5.5V11H0v38.3h5.5v5.5H11v5.5h14.3v41.4h7.6V60.1h16.3v-5.5h5.5v-5.5h5.5V10.9
		H54.7z M49.2,49.2H10.9V10.9h38.3C49.2,10.9,49.2,49.2,49.2,49.2z"/>
	<path class="st1" d="M28.3,38.6h10.2l3.9-4V20.4l-3.9-4.1H18v27.8h10.3V38.6z M28.3,24.8h3.5v5.4h-3.5V24.8z"/>
</g>
</svg>
