<?xml version="1.0" encoding="utf-8"?>
<!-- Generator: Adobe Illustrator 25.4.1, SVG Export Plug-In . SVG Version: 6.00 Build 0)  -->
<svg version="1.1" id="Layer_1" xmlns="http://www.w3.org/2000/svg" xmlns:xlink="http://www.w3.org/1999/xlink" x="0px" y="0px"
	 viewBox="0 0 63.6 126.1" style="enable-background:new 0 0 63.6 126.1;" xml:space="preserve">
<style type="text/css">
	.st0{fill:#FFFFFF;}
	.st1{fill:#828291;}
</style>
<g id="UI_Design">
	<rect x="11.6" y="11.5" class="st0" width="41.2" height="41.2"/>
	<path class="st1" d="M56.8,12.9V7.4h-5.5V2H13v5.4H7.6v5.5H2.1v38.3h5.5v5.5H13v5.5h14.4V123H35V62.1h16.3v-5.5h5.5v-5.5h5.5V12.9
		H56.8z M51.3,51.2H13V12.9h38.3V51.2z"/>
	<path class="st1" d="M30.4,40.6h10.2l3.9-4.1V22.4l-3.9-4.1H20.1v27.8h10.3C30.4,46.1,30.4,40.6,30.4,40.6z M30.4,26.7h3.5v5.4
		h-3.5C30.4,32.1,30.4,26.7,30.4,26.7z"/>
</g>
</svg>
