<?xml version="1.0" encoding="utf-8"?>
<!-- Generator: Adobe Illustrator 25.1.0, SVG Export Plug-In . SVG Version: 6.00 Build 0)  -->
<svg version="1.1" id="Layer_1" xmlns="http://www.w3.org/2000/svg" xmlns:xlink="http://www.w3.org/1999/xlink" x="0px" y="0px"
	 viewBox="0 0 22.5 16" style="enable-background:new 0 0 22.5 16;" xml:space="preserve">
<style type="text/css">
	.st0{fill:#FFD100;}
</style>
<g>
	<polygon class="st0" points="12.5,7.3 11.1,7.3 11.1,5.8 9.8,5.8 9.8,4.4 8.4,4.4 8.4,2.9 7.1,2.9 7.1,1.4 5.8,1.4 5.8,0 0,0 
		0,1.5 1.4,1.5 1.4,2.9 2.7,2.9 2.7,4.4 4.1,4.4 4.1,5.8 5.4,5.8 5.4,7.3 6.7,7.3 6.7,8.7 5.4,8.7 5.4,10.2 4.1,10.2 4.1,11.6 
		2.7,11.6 2.7,13.1 1.4,13.1 1.4,14.5 0,14.5 0,16 5.8,16 5.8,14.5 7.1,14.5 7.1,13.1 8.4,13.1 8.4,11.6 9.8,11.6 9.8,10.2 
		11.1,10.2 11.1,8.7 12.5,8.7 	"/>
	<polygon class="st0" points="22.5,7.3 21.1,7.3 21.1,5.8 19.8,5.8 19.8,4.4 18.4,4.4 18.4,2.9 17.1,2.9 17.1,1.4 15.7,1.4 15.7,0 
		10,0 10,1.5 11.4,1.5 11.4,2.9 12.7,2.9 12.7,4.4 14,4.4 14,5.8 15.4,5.8 15.4,7.3 16.7,7.3 16.7,8.7 15.4,8.7 15.4,10.2 14,10.2 
		14,11.6 12.7,11.6 12.7,13.1 11.4,13.1 11.4,14.5 10,14.5 10,16 15.7,16 15.7,14.5 17.1,14.5 17.1,13.1 18.4,13.1 18.4,11.6 
		19.8,11.6 19.8,10.2 21.1,10.2 21.1,8.7 22.5,8.7 	"/>
</g>
</svg>
